<mxfile host="app.diagrams.net" modified="2022-04-16T18:12:09.496Z" agent="5.0 (Windows NT 10.0; Win64; x64) AppleWebKit/537.36 (KHTML, like Gecko) Chrome/100.0.4896.88 Safari/537.36" etag="sayjJ1s09qItV_HcbFJa" version="15.9.1" type="github">
  <diagram id="v-6nLY3T-MIFj0ZKChaS" name="Page-1">
    <mxGraphModel dx="1038" dy="547" grid="1" gridSize="10" guides="1" tooltips="1" connect="1" arrows="1" fold="1" page="1" pageScale="1" pageWidth="850" pageHeight="1100" math="0" shadow="0">
      <root>
        <mxCell id="0" />
        <mxCell id="1" parent="0" />
        <mxCell id="o82rowFZG1uTRPenJI2O-1" value="" style="endArrow=none;html=1;rounded=0;" edge="1" parent="1">
          <mxGeometry width="50" height="50" relative="1" as="geometry">
            <mxPoint x="120" y="280" as="sourcePoint" />
            <mxPoint x="120" y="80" as="targetPoint" />
          </mxGeometry>
        </mxCell>
        <mxCell id="o82rowFZG1uTRPenJI2O-2" value="1" style="whiteSpace=wrap;html=1;aspect=fixed;" vertex="1" parent="1">
          <mxGeometry x="90" y="90" width="30" height="30" as="geometry" />
        </mxCell>
        <mxCell id="o82rowFZG1uTRPenJI2O-5" value="0" style="text;html=1;strokeColor=none;fillColor=none;align=center;verticalAlign=middle;whiteSpace=wrap;rounded=0;" vertex="1" parent="1">
          <mxGeometry x="90" y="50" width="60" height="30" as="geometry" />
        </mxCell>
        <mxCell id="o82rowFZG1uTRPenJI2O-6" value="40" style="text;html=1;strokeColor=none;fillColor=none;align=center;verticalAlign=middle;whiteSpace=wrap;rounded=0;" vertex="1" parent="1">
          <mxGeometry x="20" y="90" width="60" height="30" as="geometry" />
        </mxCell>
        <mxCell id="o82rowFZG1uTRPenJI2O-7" value="2" style="whiteSpace=wrap;html=1;aspect=fixed;" vertex="1" parent="1">
          <mxGeometry x="170" y="160" width="30" height="30" as="geometry" />
        </mxCell>
        <mxCell id="o82rowFZG1uTRPenJI2O-8" value="20" style="text;html=1;strokeColor=none;fillColor=none;align=center;verticalAlign=middle;whiteSpace=wrap;rounded=0;" vertex="1" parent="1">
          <mxGeometry x="20" y="160" width="60" height="30" as="geometry" />
        </mxCell>
        <mxCell id="o82rowFZG1uTRPenJI2O-9" value="80" style="text;html=1;strokeColor=none;fillColor=none;align=center;verticalAlign=middle;whiteSpace=wrap;rounded=0;" vertex="1" parent="1">
          <mxGeometry x="20" y="240" width="60" height="30" as="geometry" />
        </mxCell>
        <mxCell id="o82rowFZG1uTRPenJI2O-10" value="" style="endArrow=none;html=1;rounded=0;" edge="1" parent="1">
          <mxGeometry width="50" height="50" relative="1" as="geometry">
            <mxPoint x="200" y="280" as="sourcePoint" />
            <mxPoint x="200" y="80" as="targetPoint" />
          </mxGeometry>
        </mxCell>
        <mxCell id="o82rowFZG1uTRPenJI2O-11" value="" style="endArrow=none;html=1;rounded=0;" edge="1" parent="1">
          <mxGeometry width="50" height="50" relative="1" as="geometry">
            <mxPoint x="280" y="280" as="sourcePoint" />
            <mxPoint x="280" y="80" as="targetPoint" />
          </mxGeometry>
        </mxCell>
        <mxCell id="o82rowFZG1uTRPenJI2O-12" value="" style="endArrow=none;html=1;rounded=0;" edge="1" parent="1">
          <mxGeometry width="50" height="50" relative="1" as="geometry">
            <mxPoint x="360" y="280" as="sourcePoint" />
            <mxPoint x="360" y="80" as="targetPoint" />
          </mxGeometry>
        </mxCell>
        <mxCell id="o82rowFZG1uTRPenJI2O-13" value="" style="endArrow=none;html=1;rounded=0;" edge="1" parent="1">
          <mxGeometry width="50" height="50" relative="1" as="geometry">
            <mxPoint x="440" y="280" as="sourcePoint" />
            <mxPoint x="440" y="80" as="targetPoint" />
          </mxGeometry>
        </mxCell>
        <mxCell id="o82rowFZG1uTRPenJI2O-14" value="100" style="text;html=1;strokeColor=none;fillColor=none;align=center;verticalAlign=middle;whiteSpace=wrap;rounded=0;" vertex="1" parent="1">
          <mxGeometry x="170" y="50" width="60" height="30" as="geometry" />
        </mxCell>
        <mxCell id="o82rowFZG1uTRPenJI2O-15" value="150" style="text;html=1;strokeColor=none;fillColor=none;align=center;verticalAlign=middle;whiteSpace=wrap;rounded=0;" vertex="1" parent="1">
          <mxGeometry x="250" y="50" width="60" height="30" as="geometry" />
        </mxCell>
        <mxCell id="o82rowFZG1uTRPenJI2O-16" value="700" style="text;html=1;strokeColor=none;fillColor=none;align=center;verticalAlign=middle;whiteSpace=wrap;rounded=0;" vertex="1" parent="1">
          <mxGeometry x="330" y="50" width="60" height="30" as="geometry" />
        </mxCell>
        <mxCell id="o82rowFZG1uTRPenJI2O-17" value="800" style="text;html=1;strokeColor=none;fillColor=none;align=center;verticalAlign=middle;whiteSpace=wrap;rounded=0;" vertex="1" parent="1">
          <mxGeometry x="410" y="50" width="60" height="30" as="geometry" />
        </mxCell>
        <mxCell id="o82rowFZG1uTRPenJI2O-18" value="" style="endArrow=none;html=1;rounded=0;" edge="1" parent="1">
          <mxGeometry width="50" height="50" relative="1" as="geometry">
            <mxPoint x="520" y="280" as="sourcePoint" />
            <mxPoint x="520" y="80" as="targetPoint" />
          </mxGeometry>
        </mxCell>
        <mxCell id="o82rowFZG1uTRPenJI2O-19" value="1000" style="text;html=1;strokeColor=none;fillColor=none;align=center;verticalAlign=middle;whiteSpace=wrap;rounded=0;" vertex="1" parent="1">
          <mxGeometry x="490" y="50" width="60" height="30" as="geometry" />
        </mxCell>
        <mxCell id="o82rowFZG1uTRPenJI2O-21" value="3" style="whiteSpace=wrap;html=1;aspect=fixed;" vertex="1" parent="1">
          <mxGeometry x="330" y="240" width="30" height="30" as="geometry" />
        </mxCell>
        <mxCell id="o82rowFZG1uTRPenJI2O-22" value="" style="endArrow=classic;html=1;rounded=0;" edge="1" parent="1">
          <mxGeometry width="50" height="50" relative="1" as="geometry">
            <mxPoint x="120" y="104.5" as="sourcePoint" />
            <mxPoint x="200" y="104.5" as="targetPoint" />
          </mxGeometry>
        </mxCell>
        <mxCell id="o82rowFZG1uTRPenJI2O-23" value="" style="endArrow=classic;html=1;rounded=0;" edge="1" parent="1">
          <mxGeometry width="50" height="50" relative="1" as="geometry">
            <mxPoint x="200" y="104.5" as="sourcePoint" />
            <mxPoint x="280" y="104.5" as="targetPoint" />
          </mxGeometry>
        </mxCell>
        <mxCell id="o82rowFZG1uTRPenJI2O-24" value="" style="endArrow=classic;html=1;rounded=0;" edge="1" parent="1">
          <mxGeometry width="50" height="50" relative="1" as="geometry">
            <mxPoint x="200" y="174.5" as="sourcePoint" />
            <mxPoint x="280" y="174.5" as="targetPoint" />
          </mxGeometry>
        </mxCell>
        <mxCell id="o82rowFZG1uTRPenJI2O-25" value="" style="endArrow=classic;html=1;rounded=0;" edge="1" parent="1">
          <mxGeometry width="50" height="50" relative="1" as="geometry">
            <mxPoint x="280" y="174.5" as="sourcePoint" />
            <mxPoint x="360" y="174.5" as="targetPoint" />
          </mxGeometry>
        </mxCell>
        <mxCell id="o82rowFZG1uTRPenJI2O-26" value="" style="endArrow=classic;html=1;rounded=0;" edge="1" parent="1">
          <mxGeometry width="50" height="50" relative="1" as="geometry">
            <mxPoint x="360" y="174.5" as="sourcePoint" />
            <mxPoint x="440" y="174.5" as="targetPoint" />
          </mxGeometry>
        </mxCell>
        <mxCell id="o82rowFZG1uTRPenJI2O-27" value="" style="endArrow=classic;html=1;rounded=0;" edge="1" parent="1">
          <mxGeometry width="50" height="50" relative="1" as="geometry">
            <mxPoint x="360" y="254.5" as="sourcePoint" />
            <mxPoint x="440" y="254.5" as="targetPoint" />
          </mxGeometry>
        </mxCell>
        <mxCell id="o82rowFZG1uTRPenJI2O-28" value="" style="endArrow=classic;html=1;rounded=0;" edge="1" parent="1">
          <mxGeometry width="50" height="50" relative="1" as="geometry">
            <mxPoint x="440" y="254.5" as="sourcePoint" />
            <mxPoint x="520" y="254.5" as="targetPoint" />
          </mxGeometry>
        </mxCell>
        <mxCell id="o82rowFZG1uTRPenJI2O-29" value="(4)" style="text;html=1;strokeColor=none;fillColor=none;align=center;verticalAlign=middle;whiteSpace=wrap;rounded=0;" vertex="1" parent="1">
          <mxGeometry x="155" y="80" width="60" height="30" as="geometry" />
        </mxCell>
        <mxCell id="o82rowFZG1uTRPenJI2O-31" value="(2)" style="text;html=1;strokeColor=none;fillColor=none;align=center;verticalAlign=middle;whiteSpace=wrap;rounded=0;" vertex="1" parent="1">
          <mxGeometry x="240" y="80" width="60" height="30" as="geometry" />
        </mxCell>
        <mxCell id="o82rowFZG1uTRPenJI2O-32" value="(2)" style="text;html=1;strokeColor=none;fillColor=none;align=center;verticalAlign=middle;whiteSpace=wrap;rounded=0;" vertex="1" parent="1">
          <mxGeometry x="395" y="150" width="60" height="30" as="geometry" />
        </mxCell>
        <mxCell id="o82rowFZG1uTRPenJI2O-33" value="(1)" style="text;html=1;strokeColor=none;fillColor=none;align=center;verticalAlign=middle;whiteSpace=wrap;rounded=0;" vertex="1" parent="1">
          <mxGeometry x="240" y="150" width="60" height="30" as="geometry" />
        </mxCell>
        <mxCell id="o82rowFZG1uTRPenJI2O-34" value="(11)" style="text;html=1;strokeColor=none;fillColor=none;align=center;verticalAlign=middle;whiteSpace=wrap;rounded=0;" vertex="1" parent="1">
          <mxGeometry x="315" y="150" width="60" height="30" as="geometry" />
        </mxCell>
        <mxCell id="o82rowFZG1uTRPenJI2O-35" value="(8)" style="text;html=1;strokeColor=none;fillColor=none;align=center;verticalAlign=middle;whiteSpace=wrap;rounded=0;" vertex="1" parent="1">
          <mxGeometry x="395" y="230" width="60" height="30" as="geometry" />
        </mxCell>
        <mxCell id="o82rowFZG1uTRPenJI2O-36" value="(16)" style="text;html=1;strokeColor=none;fillColor=none;align=center;verticalAlign=middle;whiteSpace=wrap;rounded=0;" vertex="1" parent="1">
          <mxGeometry x="470" y="230" width="60" height="30" as="geometry" />
        </mxCell>
        <mxCell id="o82rowFZG1uTRPenJI2O-37" value="" style="endArrow=none;dashed=1;html=1;rounded=0;entryX=0;entryY=0.5;entryDx=0;entryDy=0;" edge="1" parent="1" target="o82rowFZG1uTRPenJI2O-7">
          <mxGeometry width="50" height="50" relative="1" as="geometry">
            <mxPoint x="120" y="175" as="sourcePoint" />
            <mxPoint x="155" y="180" as="targetPoint" />
          </mxGeometry>
        </mxCell>
        <mxCell id="o82rowFZG1uTRPenJI2O-38" value="40" style="text;html=1;strokeColor=none;fillColor=none;align=center;verticalAlign=middle;whiteSpace=wrap;rounded=0;" vertex="1" parent="1">
          <mxGeometry x="130" y="100" width="60" height="30" as="geometry" />
        </mxCell>
        <mxCell id="o82rowFZG1uTRPenJI2O-39" value="40" style="text;html=1;strokeColor=none;fillColor=none;align=center;verticalAlign=middle;whiteSpace=wrap;rounded=0;" vertex="1" parent="1">
          <mxGeometry x="210" y="100" width="60" height="30" as="geometry" />
        </mxCell>
        <mxCell id="o82rowFZG1uTRPenJI2O-40" value="6,7" style="text;html=1;strokeColor=none;fillColor=none;align=center;verticalAlign=middle;whiteSpace=wrap;rounded=0;" vertex="1" parent="1">
          <mxGeometry x="210" y="170" width="60" height="30" as="geometry" />
        </mxCell>
        <mxCell id="o82rowFZG1uTRPenJI2O-41" value="6,7" style="text;html=1;strokeColor=none;fillColor=none;align=center;verticalAlign=middle;whiteSpace=wrap;rounded=0;" vertex="1" parent="1">
          <mxGeometry x="290" y="170" width="60" height="30" as="geometry" />
        </mxCell>
        <mxCell id="o82rowFZG1uTRPenJI2O-42" value="" style="endArrow=none;dashed=1;html=1;dashPattern=1 3;strokeWidth=2;rounded=0;entryX=0.75;entryY=1;entryDx=0;entryDy=0;" edge="1" parent="1" target="o82rowFZG1uTRPenJI2O-31">
          <mxGeometry width="50" height="50" relative="1" as="geometry">
            <mxPoint x="285" y="200" as="sourcePoint" />
            <mxPoint x="310" y="150" as="targetPoint" />
          </mxGeometry>
        </mxCell>
        <mxCell id="o82rowFZG1uTRPenJI2O-43" value="" style="rhombus;whiteSpace=wrap;html=1;" vertex="1" parent="1">
          <mxGeometry x="280" y="100" width="10" height="10" as="geometry" />
        </mxCell>
        <mxCell id="o82rowFZG1uTRPenJI2O-44" value="" style="endArrow=none;dashed=1;html=1;rounded=0;exitX=0;exitY=1;exitDx=0;exitDy=0;" edge="1" parent="1" source="o82rowFZG1uTRPenJI2O-41">
          <mxGeometry width="50" height="50" relative="1" as="geometry">
            <mxPoint x="295" y="250" as="sourcePoint" />
            <mxPoint x="360" y="200" as="targetPoint" />
          </mxGeometry>
        </mxCell>
        <mxCell id="o82rowFZG1uTRPenJI2O-45" value="13,3" style="text;html=1;strokeColor=none;fillColor=none;align=center;verticalAlign=middle;whiteSpace=wrap;rounded=0;" vertex="1" parent="1">
          <mxGeometry x="290" y="200" width="60" height="30" as="geometry" />
        </mxCell>
        <mxCell id="o82rowFZG1uTRPenJI2O-46" value="20" style="text;html=1;strokeColor=none;fillColor=none;align=center;verticalAlign=middle;whiteSpace=wrap;rounded=0;" vertex="1" parent="1">
          <mxGeometry x="365" y="170" width="60" height="30" as="geometry" />
        </mxCell>
        <mxCell id="o82rowFZG1uTRPenJI2O-47" value="" style="endArrow=none;dashed=1;html=1;dashPattern=1 3;strokeWidth=2;rounded=0;" edge="1" parent="1">
          <mxGeometry width="50" height="50" relative="1" as="geometry">
            <mxPoint x="285" y="250" as="sourcePoint" />
            <mxPoint x="284.5" y="200" as="targetPoint" />
          </mxGeometry>
        </mxCell>
        <mxCell id="o82rowFZG1uTRPenJI2O-48" value="" style="endArrow=none;dashed=1;html=1;rounded=0;entryX=0;entryY=0.5;entryDx=0;entryDy=0;" edge="1" parent="1">
          <mxGeometry width="50" height="50" relative="1" as="geometry">
            <mxPoint x="280" y="254.5" as="sourcePoint" />
            <mxPoint x="330" y="254.5" as="targetPoint" />
          </mxGeometry>
        </mxCell>
        <mxCell id="o82rowFZG1uTRPenJI2O-49" value="12,31" style="text;html=1;strokeColor=none;fillColor=none;align=center;verticalAlign=middle;whiteSpace=wrap;rounded=0;" vertex="1" parent="1">
          <mxGeometry x="365" y="250" width="60" height="30" as="geometry" />
        </mxCell>
        <mxCell id="o82rowFZG1uTRPenJI2O-50" value="" style="rhombus;whiteSpace=wrap;html=1;" vertex="1" parent="1">
          <mxGeometry x="445" y="100" width="10" height="10" as="geometry" />
        </mxCell>
        <mxCell id="o82rowFZG1uTRPenJI2O-51" value="" style="endArrow=none;dashed=1;html=1;dashPattern=1 3;strokeWidth=2;rounded=0;entryX=0.5;entryY=1;entryDx=0;entryDy=0;startArrow=none;" edge="1" parent="1" target="o82rowFZG1uTRPenJI2O-50">
          <mxGeometry width="50" height="50" relative="1" as="geometry">
            <mxPoint x="450" y="140" as="sourcePoint" />
            <mxPoint x="440" y="120" as="targetPoint" />
          </mxGeometry>
        </mxCell>
        <mxCell id="o82rowFZG1uTRPenJI2O-52" value="" style="endArrow=none;dashed=1;html=1;rounded=0;" edge="1" parent="1">
          <mxGeometry width="50" height="50" relative="1" as="geometry">
            <mxPoint x="445" y="209" as="sourcePoint" />
            <mxPoint x="520" y="209.5" as="targetPoint" />
          </mxGeometry>
        </mxCell>
        <mxCell id="o82rowFZG1uTRPenJI2O-53" value="" style="ellipse;whiteSpace=wrap;html=1;aspect=fixed;" vertex="1" parent="1">
          <mxGeometry x="445" y="170" width="10" height="10" as="geometry" />
        </mxCell>
        <mxCell id="o82rowFZG1uTRPenJI2O-54" value="" style="endArrow=none;dashed=1;html=1;dashPattern=1 3;strokeWidth=2;rounded=0;entryX=0.5;entryY=1;entryDx=0;entryDy=0;" edge="1" parent="1" target="o82rowFZG1uTRPenJI2O-53">
          <mxGeometry width="50" height="50" relative="1" as="geometry">
            <mxPoint x="449.5" y="210" as="sourcePoint" />
            <mxPoint x="450" y="110" as="targetPoint" />
          </mxGeometry>
        </mxCell>
        <mxCell id="o82rowFZG1uTRPenJI2O-55" value="" style="endArrow=none;dashed=1;html=1;rounded=0;" edge="1" parent="1">
          <mxGeometry width="50" height="50" relative="1" as="geometry">
            <mxPoint x="445" y="140" as="sourcePoint" />
            <mxPoint x="520" y="140.5" as="targetPoint" />
          </mxGeometry>
        </mxCell>
        <mxCell id="o82rowFZG1uTRPenJI2O-56" value="12,31" style="text;html=1;strokeColor=none;fillColor=none;align=center;verticalAlign=middle;whiteSpace=wrap;rounded=0;" vertex="1" parent="1">
          <mxGeometry x="445" y="250" width="60" height="30" as="geometry" />
        </mxCell>
        <mxCell id="o82rowFZG1uTRPenJI2O-57" value="20" style="text;html=1;strokeColor=none;fillColor=none;align=center;verticalAlign=middle;whiteSpace=wrap;rounded=0;" vertex="1" parent="1">
          <mxGeometry x="455" y="210" width="60" height="30" as="geometry" />
        </mxCell>
        <mxCell id="o82rowFZG1uTRPenJI2O-58" value="11,2" style="text;html=1;strokeColor=none;fillColor=none;align=center;verticalAlign=middle;whiteSpace=wrap;rounded=0;" vertex="1" parent="1">
          <mxGeometry x="455" y="140" width="60" height="30" as="geometry" />
        </mxCell>
        <mxCell id="o82rowFZG1uTRPenJI2O-59" value="i1" style="text;html=1;strokeColor=none;fillColor=none;align=center;verticalAlign=middle;whiteSpace=wrap;rounded=0;" vertex="1" parent="1">
          <mxGeometry x="130" y="290" width="60" height="30" as="geometry" />
        </mxCell>
        <mxCell id="o82rowFZG1uTRPenJI2O-60" value="i2" style="text;html=1;strokeColor=none;fillColor=none;align=center;verticalAlign=middle;whiteSpace=wrap;rounded=0;" vertex="1" parent="1">
          <mxGeometry x="210" y="290" width="60" height="30" as="geometry" />
        </mxCell>
        <mxCell id="o82rowFZG1uTRPenJI2O-61" value="i3" style="text;html=1;strokeColor=none;fillColor=none;align=center;verticalAlign=middle;whiteSpace=wrap;rounded=0;" vertex="1" parent="1">
          <mxGeometry x="290" y="290" width="60" height="30" as="geometry" />
        </mxCell>
        <mxCell id="o82rowFZG1uTRPenJI2O-62" value="i4" style="text;html=1;strokeColor=none;fillColor=none;align=center;verticalAlign=middle;whiteSpace=wrap;rounded=0;" vertex="1" parent="1">
          <mxGeometry x="375" y="290" width="60" height="30" as="geometry" />
        </mxCell>
        <mxCell id="o82rowFZG1uTRPenJI2O-63" value="i5" style="text;html=1;strokeColor=none;fillColor=none;align=center;verticalAlign=middle;whiteSpace=wrap;rounded=0;" vertex="1" parent="1">
          <mxGeometry x="455" y="290" width="60" height="30" as="geometry" />
        </mxCell>
      </root>
    </mxGraphModel>
  </diagram>
</mxfile>
